<?xml version="1.0" encoding="utf-8"?>
<!-- Generator: Adobe Illustrator 24.0.2, SVG Export Plug-In . SVG Version: 6.00 Build 0)  -->
<svg version="1.1" xmlns="http://www.w3.org/2000/svg" xmlns:xlink="http://www.w3.org/1999/xlink" x="0px" y="0px"
	 viewBox="0 0 750 500" style="enable-background:new 0 0 750 500;" xml:space="preserve">
<style type="text/css">
	.st0{fill:url(#SVGID_1_);}
	.st1{clip-path:url(#SVGID_3_);fill:url(#SVGID_4_);}
	.st2{opacity:0.38;}
	.st3{opacity:0.39;clip-path:url(#SVGID_6_);}
	
		.st4{fill:none;stroke:#1B1A28;stroke-width:6;stroke-linecap:round;stroke-linejoin:round;stroke-dasharray:0,9.9827,0,9.9827,0,9.9827;}
	
		.st5{fill:none;stroke:#1B1A28;stroke-width:5.918;stroke-linecap:round;stroke-linejoin:round;stroke-dasharray:0,10.0337,0,10.0337,0,10.0337;}
	
		.st6{fill:none;stroke:#1B1A28;stroke-width:5.8361;stroke-linecap:round;stroke-linejoin:round;stroke-dasharray:0,9.9773,0,9.9773,0,9.9773;}
	
		.st7{fill:none;stroke:#1B1A28;stroke-width:5.7541;stroke-linecap:round;stroke-linejoin:round;stroke-dasharray:0,10.0299,0,10.0299,0,10.0299;}
	
		.st8{fill:none;stroke:#1B1A28;stroke-width:5.6721;stroke-linecap:round;stroke-linejoin:round;stroke-dasharray:0,9.9716,0,9.9716,0,9.9716;}
	
		.st9{fill:none;stroke:#1B1A28;stroke-width:5.5902;stroke-linecap:round;stroke-linejoin:round;stroke-dasharray:0,10.0259,0,10.0259,0,10.0259;}
	
		.st10{fill:none;stroke:#1B1A28;stroke-width:5.5082;stroke-linecap:round;stroke-linejoin:round;stroke-dasharray:0,9.9655,0,9.9655,0,9.9655;}
	
		.st11{fill:none;stroke:#1B1A28;stroke-width:5.4262;stroke-linecap:round;stroke-linejoin:round;stroke-dasharray:0,10.0216,0,10.0216,0,10.0216;}
	
		.st12{fill:none;stroke:#1B1A28;stroke-width:5.3443;stroke-linecap:round;stroke-linejoin:round;stroke-dasharray:0,9.9589,0,9.9589,0,9.9589;}
	
		.st13{fill:none;stroke:#1B1A28;stroke-width:5.2623;stroke-linecap:round;stroke-linejoin:round;stroke-dasharray:0,10.0169,0,10.0169,0,10.0169;}
	
		.st14{fill:none;stroke:#1B1A28;stroke-width:5.1803;stroke-linecap:round;stroke-linejoin:round;stroke-dasharray:0,9.9519,0,9.9519,0,9.9519;}
	
		.st15{fill:none;stroke:#1B1A28;stroke-width:5.0984;stroke-linecap:round;stroke-linejoin:round;stroke-dasharray:0,10.0119,0,10.0119,0,10.0119;}
	
		.st16{fill:none;stroke:#1B1A28;stroke-width:5.0164;stroke-linecap:round;stroke-linejoin:round;stroke-dasharray:0,9.9443,0,9.9443,0,9.9443;}
	
		.st17{fill:none;stroke:#1B1A28;stroke-width:4.9344;stroke-linecap:round;stroke-linejoin:round;stroke-dasharray:0,10.0065,0,10.0065,0,10.0065;}
	
		.st18{fill:none;stroke:#1B1A28;stroke-width:4.8525;stroke-linecap:round;stroke-linejoin:round;stroke-dasharray:0,9.9361,0,9.9361,0,9.9361;}
	
		.st19{fill:none;stroke:#1B1A28;stroke-width:4.7705;stroke-linecap:round;stroke-linejoin:round;stroke-dasharray:0,10.0007,0,10.0007,0,10.0007;}
	
		.st20{fill:none;stroke:#1B1A28;stroke-width:4.6885;stroke-linecap:round;stroke-linejoin:round;stroke-dasharray:0,10.069,0,10.069,0,10.069;}
	
		.st21{fill:none;stroke:#1B1A28;stroke-width:4.6066;stroke-linecap:round;stroke-linejoin:round;stroke-dasharray:0,9.9943,0,9.9943,0,9.9943;}
	
		.st22{fill:none;stroke:#1B1A28;stroke-width:4.5246;stroke-linecap:round;stroke-linejoin:round;stroke-dasharray:0,10.0655,0,10.0655,0,10.0655;}
	
		.st23{fill:none;stroke:#1B1A28;stroke-width:4.4426;stroke-linecap:round;stroke-linejoin:round;stroke-dasharray:0,9.9874,0,9.9874,0,9.9874;}
	
		.st24{fill:none;stroke:#1B1A28;stroke-width:4.3607;stroke-linecap:round;stroke-linejoin:round;stroke-dasharray:0,10.0617,0,10.0617,0,10.0617;}
	
		.st25{fill:none;stroke:#1B1A28;stroke-width:4.2787;stroke-linecap:round;stroke-linejoin:round;stroke-dasharray:0,9.9798,0,9.9798,0,9.9798;}
	
		.st26{fill:none;stroke:#1B1A28;stroke-width:4.1967;stroke-linecap:round;stroke-linejoin:round;stroke-dasharray:0,10.0575,0,10.0575,0,10.0575;}
	
		.st27{fill:none;stroke:#1B1A28;stroke-width:4.1148;stroke-linecap:round;stroke-linejoin:round;stroke-dasharray:0,9.9715,0,9.9715,0,9.9715;}
	
		.st28{fill:none;stroke:#1B1A28;stroke-width:4.0328;stroke-linecap:round;stroke-linejoin:round;stroke-dasharray:0,10.0529,0,10.0529,0,10.0529;}
	
		.st29{fill:none;stroke:#1B1A28;stroke-width:3.9508;stroke-linecap:round;stroke-linejoin:round;stroke-dasharray:0,9.9622,0,9.9622,0,9.9622;}
	
		.st30{fill:none;stroke:#1B1A28;stroke-width:3.8689;stroke-linecap:round;stroke-linejoin:round;stroke-dasharray:0,10.0478,0,10.0478,0,10.0478;}
	
		.st31{fill:none;stroke:#1B1A28;stroke-width:3.7869;stroke-linecap:round;stroke-linejoin:round;stroke-dasharray:0,9.952,0,9.952,0,9.952;}
	
		.st32{fill:none;stroke:#1B1A28;stroke-width:3.7049;stroke-linecap:round;stroke-linejoin:round;stroke-dasharray:0,10.0421,0,10.0421,0,10.0421;}
	
		.st33{fill:none;stroke:#1B1A28;stroke-width:3.623;stroke-linecap:round;stroke-linejoin:round;stroke-dasharray:0,9.9405,0,9.9405,0,9.9405;}
	
		.st34{fill:none;stroke:#1B1A28;stroke-width:3.541;stroke-linecap:round;stroke-linejoin:round;stroke-dasharray:0,10.0356,0,10.0356,0,10.0356;}
	
		.st35{fill:none;stroke:#1B1A28;stroke-width:3.459;stroke-linecap:round;stroke-linejoin:round;stroke-dasharray:0,9.9276,0,9.9276,0,9.9276;}
	
		.st36{fill:none;stroke:#1B1A28;stroke-width:3.377;stroke-linecap:round;stroke-linejoin:round;stroke-dasharray:0,10.0284,0,10.0284,0,10.0284;}
	
		.st37{fill:none;stroke:#1B1A28;stroke-width:3.2951;stroke-linecap:round;stroke-linejoin:round;stroke-dasharray:0,9.913,0,9.913,0,9.913;}
	
		.st38{fill:none;stroke:#1B1A28;stroke-width:3.2131;stroke-linecap:round;stroke-linejoin:round;stroke-dasharray:0,10.0201,0,10.0201,0,10.0201;}
	
		.st39{fill:none;stroke:#1B1A28;stroke-width:3.1311;stroke-linecap:round;stroke-linejoin:round;stroke-dasharray:0,9.8963,0,9.8963,0,9.8963;}
	
		.st40{fill:none;stroke:#1B1A28;stroke-width:3.0492;stroke-linecap:round;stroke-linejoin:round;stroke-dasharray:0,10.0106,0,10.0106,0,10.0106;}
	
		.st41{fill:none;stroke:#1B1A28;stroke-width:2.9672;stroke-linecap:round;stroke-linejoin:round;stroke-dasharray:0,9.8771,0,9.8771,0,9.8771;}
	
		.st42{fill:none;stroke:#1B1A28;stroke-width:2.8852;stroke-linecap:round;stroke-linejoin:round;stroke-dasharray:0,9.9996,0,9.9996,0,9.9996;}
	
		.st43{fill:none;stroke:#1B1A28;stroke-width:2.8033;stroke-linecap:round;stroke-linejoin:round;stroke-dasharray:0,10.1361,0,10.1361,0,10.1361;}
	
		.st44{fill:none;stroke:#1B1A28;stroke-width:2.7213;stroke-linecap:round;stroke-linejoin:round;stroke-dasharray:0,9.9866,0,9.9866,0,9.9866;}
	
		.st45{fill:none;stroke:#1B1A28;stroke-width:2.6393;stroke-linecap:round;stroke-linejoin:round;stroke-dasharray:0,10.1351,0,10.1351,0,10.1351;}
	
		.st46{fill:none;stroke:#1B1A28;stroke-width:2.5574;stroke-linecap:round;stroke-linejoin:round;stroke-dasharray:0,9.9711,0,9.9711,0,9.9711;}
	
		.st47{fill:none;stroke:#1B1A28;stroke-width:2.4754;stroke-linecap:round;stroke-linejoin:round;stroke-dasharray:0,10.1339,0,10.1339,0,10.1339;}
	
		.st48{fill:none;stroke:#1B1A28;stroke-width:2.3934;stroke-linecap:round;stroke-linejoin:round;stroke-dasharray:0,9.9523,0,9.9523,0,9.9523;}
	
		.st49{fill:none;stroke:#1B1A28;stroke-width:2.3115;stroke-linecap:round;stroke-linejoin:round;stroke-dasharray:0,10.1324,0,10.1324,0,10.1324;}
	
		.st50{fill:none;stroke:#1B1A28;stroke-width:2.2295;stroke-linecap:round;stroke-linejoin:round;stroke-dasharray:0,9.9289,0,9.9289,0,9.9289;}
	
		.st51{fill:none;stroke:#1B1A28;stroke-width:2.1475;stroke-linecap:round;stroke-linejoin:round;stroke-dasharray:0,10.1306,0,10.1306,0,10.1306;}
	
		.st52{fill:none;stroke:#1B1A28;stroke-width:2.0656;stroke-linecap:round;stroke-linejoin:round;stroke-dasharray:0,9.8992,0,9.8992,0,9.8992;}
	
		.st53{fill:none;stroke:#1B1A28;stroke-width:1.9836;stroke-linecap:round;stroke-linejoin:round;stroke-dasharray:0,10.1281,0,10.1281,0,10.1281;}
	
		.st54{fill:none;stroke:#1B1A28;stroke-width:1.9016;stroke-linecap:round;stroke-linejoin:round;stroke-dasharray:0,9.8601,0,9.8601,0,9.8601;}
	
		.st55{fill:none;stroke:#1B1A28;stroke-width:1.8197;stroke-linecap:round;stroke-linejoin:round;stroke-dasharray:0,10.1248,0,10.1248,0,10.1248;}
	
		.st56{fill:none;stroke:#1B1A28;stroke-width:1.7377;stroke-linecap:round;stroke-linejoin:round;stroke-dasharray:0,9.8064,0,9.8064,0,9.8064;}
	
		.st57{fill:none;stroke:#1B1A28;stroke-width:1.6557;stroke-linecap:round;stroke-linejoin:round;stroke-dasharray:0,10.1194,0,10.1194,0,10.1194;}
	
		.st58{fill:none;stroke:#1B1A28;stroke-width:1.5738;stroke-linecap:round;stroke-linejoin:round;stroke-dasharray:0,9.7257,0,9.7257,0,9.7257;}
	
		.st59{fill:none;stroke:#1B1A28;stroke-width:1.4918;stroke-linecap:round;stroke-linejoin:round;stroke-dasharray:0,10.1098,0,10.1098,0,10.1098;}
	
		.st60{fill:none;stroke:#1B1A28;stroke-width:1.4098;stroke-linecap:round;stroke-linejoin:round;stroke-dasharray:0,9.5992,0,9.5992,0,9.5992;}
	
		.st61{fill:none;stroke:#1B1A28;stroke-width:1.3279;stroke-linecap:round;stroke-linejoin:round;stroke-dasharray:0,10.097,0,10.097,0,10.097;}
	
		.st62{fill:none;stroke:#1B1A28;stroke-width:1.2459;stroke-linecap:round;stroke-linejoin:round;stroke-dasharray:0,9.3658,0,9.3658,0,9.3658;}
	
		.st63{fill:none;stroke:#1B1A28;stroke-width:1.1639;stroke-linecap:round;stroke-linejoin:round;stroke-dasharray:0,10.069,0,10.069,0,10.069;}
	
		.st64{fill:none;stroke:#1B1A28;stroke-width:1.082;stroke-linecap:round;stroke-linejoin:round;stroke-dasharray:0,8.7824,0,8.7824,0,8.7824;}
	.st65{fill:none;stroke:#1B1A28;stroke-linecap:round;stroke-linejoin:round;stroke-dasharray:0,9.9569,0,9.9569,0,9.9569;}
	.st66{clip-path:url(#SVGID_8_);}
	.st67{fill:#1781E2;}
	.st68{fill:#002E6B;}
	.st69{fill:#002255;}
	.st70{clip-path:url(#SVGID_8_);fill:#002255;}
	.st71{clip-path:url(#SVGID_8_);fill:#002E6B;}
	.st72{clip-path:url(#SVGID_8_);fill:#1781E2;}
</style>
<g id="BACKGROUND">
	<radialGradient id="SVGID_1_" cx="375" cy="250" r="318.6887" gradientUnits="userSpaceOnUse">
		<stop  offset="0" style="stop-color:#1872CF"/>
		<stop  offset="1" style="stop-color:#004E9F"/>
	</radialGradient>
	<rect class="st0" width="750" height="500"/>
</g>
<g id="OBJECT">
	<g>
		<defs>
			<rect id="SVGID_2_" width="750" height="500"/>
		</defs>
		<clipPath id="SVGID_3_">
			<use xlink:href="#SVGID_2_"  style="overflow:visible;"/>
		</clipPath>
		<radialGradient id="SVGID_4_" cx="375" cy="250" r="397.4347" gradientUnits="userSpaceOnUse">
			<stop  offset="0" style="stop-color:#1872CF"/>
			<stop  offset="1" style="stop-color:#1872CF;stop-opacity:0"/>
		</radialGradient>
		<path class="st1" d="M831.1,262.6v-98.5l-320.9,65.8l7.3-23.9l-134.3,41.4c-0.3-0.9-0.7-1.7-1.2-2.5l86.1-62l5.7,24.5L776.3,32.8
			l-49.2-85.3L482.1,165l-5.7-24.3l-95.6,103c-0.7-0.6-1.5-1.1-2.3-1.5l43.6-96.7l17.2,18.4L614-138.7L528.7-188L425.2,122.8
			l-17.1-18.2l-31.3,137c-0.6-0.1-1.3-0.2-1.9-0.2c-0.3,0-0.6,0-0.9,0l-10.6-105.5l24.1,7.3v-349.4h-98.5l65.8,320.9l-23.9-7.3
			l41.4,134.3c-0.9,0.3-1.7,0.7-2.5,1.2l-62-86.1l24.5-5.7L157.8-151.3l-85.3,49.2l217.4,245l-24.3,5.7l103,95.6
			c-0.6,0.7-1.1,1.5-1.5,2.3l-96.7-43.6l18.4-17.2L-13.7,11L-63,96.3l310.8,103.5l-18.2,17.1l137,31.3c-0.1,0.6-0.2,1.3-0.2,1.9
			c0,0.3,0,0.6,0,0.9l-105.5,10.6l7.3-24.1H-81.1v98.5l320.9-65.8l-7.3,23.9l134.3-41.4c0.3,0.9,0.7,1.7,1.2,2.5l-86.1,62l-5.7-24.5
			L-26.3,467.2l49.2,85.3l245-217.4l5.7,24.3l95.6-103c0.7,0.6,1.5,1.1,2.3,1.5l-43.6,96.7l-17.2-18.4L136,638.7l85.3,49.2
			l103.5-310.8l17.1,18.2l31.3-137c0.6,0.1,1.3,0.2,1.9,0.2c0.3,0,0.6,0,0.9,0l10.6,105.5l-24.1-7.3v349.4h98.5l-65.8-320.9
			l23.9,7.3l-41.4-134.3c0.9-0.3,1.7-0.7,2.5-1.2l62,86.1l-24.5,5.7l174.7,302.6l85.3-49.2L460,357.1l24.3-5.7l-103-95.6
			c0.6-0.7,1.1-1.5,1.5-2.3l96.7,43.6l-18.4,17.2L763.7,489l49.2-85.3L502.2,300.2l18.2-17.1l-137-31.3c0.1-0.6,0.2-1.3,0.2-1.9
			c0-0.3,0-0.6,0-0.9l105.5-10.6l-7.3,24.1H831.1z"/>
	</g>
	<g class="st2">
		<defs>
			<rect id="SVGID_5_" class="st2" width="750" height="500"/>
		</defs>
		<clipPath id="SVGID_6_">
			<use xlink:href="#SVGID_5_"  style="overflow:visible;"/>
		</clipPath>
		<g class="st3">
			<g>
				<circle class="st4" cx="375" cy="250" r="452.8"/>
			</g>
			<g>
				<circle class="st5" cx="375" cy="250" r="445.5"/>
			</g>
			<g>
				<circle class="st6" cx="375" cy="250" r="438.3"/>
			</g>
			<g>
				<circle class="st7" cx="375" cy="250" r="431"/>
			</g>
			<g>
				<circle class="st8" cx="375" cy="250" r="423.7"/>
			</g>
			<g>
				<circle class="st9" cx="375" cy="250" r="416.5"/>
			</g>
			<g>
				<circle class="st10" cx="375" cy="250" r="409.2"/>
			</g>
			<g>
				<circle class="st11" cx="375" cy="250" r="401.9"/>
			</g>
			<g>
				<circle class="st12" cx="375" cy="250" r="394.7"/>
			</g>
			<g>
				<circle class="st13" cx="375" cy="250" r="387.4"/>
			</g>
			<g>
				<circle class="st14" cx="375" cy="250" r="380.1"/>
			</g>
			<g>
				<circle class="st15" cx="375" cy="250" r="372.9"/>
			</g>
			<g>
				<circle class="st16" cx="375" cy="250" r="365.6"/>
			</g>
			<g>
				<circle class="st17" cx="375" cy="250" r="358.3"/>
			</g>
			<g>
				<circle class="st18" cx="375" cy="250" r="351.1"/>
			</g>
			<g>
				<circle class="st19" cx="375" cy="250" r="343.8"/>
			</g>
			<g>
				<circle class="st20" cx="375" cy="250" r="336.5"/>
			</g>
			<g>
				<circle class="st21" cx="375" cy="250" r="329.3"/>
			</g>
			<g>
				<circle class="st22" cx="375" cy="250" r="322"/>
			</g>
			<g>
				<circle class="st23" cx="375" cy="250" r="314.7"/>
			</g>
			<g>
				<circle class="st24" cx="375" cy="250" r="307.5"/>
			</g>
			<g>
				<circle class="st25" cx="375" cy="250" r="300.2"/>
			</g>
			<g>
				<circle class="st26" cx="375" cy="250" r="292.9"/>
			</g>
			<g>
				<circle class="st27" cx="375" cy="250" r="285.7"/>
			</g>
			<g>
				<circle class="st28" cx="375" cy="250" r="278.4"/>
			</g>
			<g>
				<circle class="st29" cx="375" cy="250" r="271.1"/>
			</g>
			<g>
				<circle class="st30" cx="375" cy="250" r="263.8"/>
			</g>
			<g>
				<circle class="st31" cx="375" cy="250" r="256.6"/>
			</g>
			<g>
				<circle class="st32" cx="375" cy="250" r="249.3"/>
			</g>
			<g>
				<circle class="st33" cx="375" cy="250" r="242"/>
			</g>
			<g>
				<circle class="st34" cx="375" cy="250" r="234.8"/>
			</g>
			<g>
				<circle class="st35" cx="375" cy="250" r="227.5"/>
			</g>
			<g>
				<circle class="st36" cx="375" cy="250" r="220.2"/>
			</g>
			<g>
				<circle class="st37" cx="375" cy="250" r="213"/>
			</g>
			<g>
				<circle class="st38" cx="375" cy="250" r="205.7"/>
			</g>
			<g>
				<circle class="st39" cx="375" cy="250" r="198.4"/>
			</g>
			<g>
				<circle class="st40" cx="375" cy="250" r="191.2"/>
			</g>
			<g>
				<circle class="st41" cx="375" cy="250" r="183.9"/>
			</g>
			<g>
				<circle class="st42" cx="375" cy="250" r="176.6"/>
			</g>
			<g>
				<circle class="st43" cx="375" cy="250" r="169.4"/>
			</g>
			<g>
				<circle class="st44" cx="375" cy="250" r="162.1"/>
			</g>
			<g>
				<circle class="st45" cx="375" cy="250" r="154.8"/>
			</g>
			<g>
				<circle class="st46" cx="375" cy="250" r="147.6"/>
			</g>
			<g>
				<circle class="st47" cx="375" cy="250" r="140.3"/>
			</g>
			<g>
				<circle class="st48" cx="375" cy="250" r="133"/>
			</g>
			<g>
				<circle class="st49" cx="375" cy="250" r="125.8"/>
			</g>
			<g>
				<circle class="st50" cx="375" cy="250" r="118.5"/>
			</g>
			<g>
				<circle class="st51" cx="375" cy="250" r="111.2"/>
			</g>
			<g>
				<circle class="st52" cx="375" cy="250" r="104"/>
			</g>
			<g>
				<circle class="st53" cx="375" cy="250" r="96.7"/>
			</g>
			<g>
				<circle class="st54" cx="375" cy="250" r="89.4"/>
			</g>
			<g>
				<circle class="st55" cx="375" cy="250" r="82.2"/>
			</g>
			<g>
				<circle class="st56" cx="375" cy="250" r="74.9"/>
			</g>
			<g>
				<circle class="st57" cx="375" cy="250" r="67.6"/>
			</g>
			<g>
				<circle class="st58" cx="375" cy="250" r="60.4"/>
			</g>
			<g>
				<circle class="st59" cx="375" cy="250" r="53.1"/>
			</g>
			<g>
				<circle class="st60" cx="375" cy="250" r="45.8"/>
			</g>
			<g>
				<circle class="st61" cx="375" cy="250" r="38.6"/>
			</g>
			<g>
				<circle class="st62" cx="375" cy="250" r="31.3"/>
			</g>
			<g>
				<circle class="st63" cx="375" cy="250" r="24"/>
			</g>
			<g>
				<circle class="st64" cx="375" cy="250" r="16.8"/>
			</g>
			<g>
				<circle class="st65" cx="375" cy="250" r="9.5"/>
			</g>
		</g>
	</g>
	<g>
		<defs>
			<rect id="SVGID_7_" width="750" height="500"/>
		</defs>
		<clipPath id="SVGID_8_">
			<use xlink:href="#SVGID_7_"  style="overflow:visible;"/>
		</clipPath>
		<g class="st66">
			<polygon class="st67" points="101,35.3 10.9,-47 -12.3,-21.6 86,37 78.5,41.5 125.6,63.7 93.5,39.8 			"/>
			<polygon class="st68" points="321.7,60.9 285.4,-55.7 252.5,-45.4 307.9,54.8 299.2,54.9 328.6,97.8 312.9,61 			"/>
			<polygon class="st69" points="371.7,34.8 371.1,-87.3 336.7,-87.1 360.3,24.9 351.9,22.4 367.6,72.1 363.3,32.3 			"/>
			<polygon class="st67" points="235.6,16.5 181.8,-93.1 150.9,-77.9 221,12.6 212.3,14 248.1,51.9 226.9,17.9 			"/>
			<polygon class="st69" points="163.9,43 83.7,-49 57.7,-26.4 148.8,43 140.8,46.6 231.6,117.7 155.9,46.6 			"/>
			<polygon class="st69" points="60,202.7 -57.6,169.9 -66.8,203 47.4,211 42.7,218.4 94.8,216.9 55.3,210.1 			"/>
			<polygon class="st67" points="109,179.8 -4.1,133.9 -17,165.8 95.5,186.7 90,193.4 203.2,215.8 103.5,186.7 			"/>
			<polygon class="st68" points="47.9,81.5 -17.3,40 -29,58.4 38.7,84.2 34.5,87.8 102.5,114.7 43.7,85.1 			"/>
		</g>
		<g class="st66">
			<polygon class="st68" points="101,464.7 10.9,547 -12.3,521.6 86,463 78.5,458.5 125.6,436.3 93.5,460.2 			"/>
			<polygon class="st69" points="163.9,457 83.7,549 57.7,526.4 148.8,457 140.8,453.4 231.6,382.3 155.9,453.4 			"/>
			<polygon class="st67" points="60,297.3 -57.6,330.1 -66.8,297 47.4,289 42.7,281.6 94.8,283.1 55.3,289.9 			"/>
			<polygon class="st68" points="109,320.2 -4.1,366.1 -17,334.2 95.5,313.3 90,306.6 203.2,284.2 103.5,313.3 			"/>
			<polygon class="st67" points="46.9,404.4 -18.3,446 -30,427.6 37.7,401.7 33.5,398.1 101.4,371.2 42.7,400.8 			"/>
		</g>
		<g class="st66">
			<polygon class="st67" points="649,464.7 739.1,547 762.3,521.6 664,463 671.5,458.5 624.4,436.3 656.5,460.2 			"/>
			<polygon class="st68" points="586.1,457 666.3,549 692.3,526.4 601.2,457 609.2,453.4 518.4,382.3 594.1,453.4 			"/>
			<polygon class="st69" points="690,297.3 807.6,330.1 816.8,297 702.6,289 707.3,281.6 655.2,283.1 694.7,289.9 			"/>
			<polygon class="st67" points="641,320.2 754.1,366.1 767,334.2 654.5,313.3 660,306.6 546.8,284.2 646.5,313.3 			"/>
			<polygon class="st68" points="702.1,418.5 767.3,460 779,441.6 711.3,415.8 715.5,412.2 647.5,385.3 706.3,414.9 			"/>
		</g>
		<polygon class="st70" points="428.3,439.1 464.6,555.7 497.5,545.4 442.1,445.2 450.8,445.1 421.4,402.2 437.1,439 		"/>
		<polygon class="st71" points="378.3,465.2 378.9,587.3 413.3,587.1 389.7,475.1 398.1,477.6 382.4,427.9 386.7,467.7 		"/>
		<polygon class="st72" points="514.4,483.5 568.2,593.1 599.1,577.9 529,487.4 537.7,486 501.9,448.1 523.1,482.1 		"/>
		<polygon class="st71" points="263.6,482.8 242.6,544.7 225.1,538.8 256.1,485.9 251.4,485.7 267.8,463.1 258.9,482.7 		"/>
		<polygon class="st72" points="330.5,473.8 319.7,554.5 297,551.5 322.1,479.3 316.3,480.3 340.7,407.3 324.7,474.7 		"/>
		<polygon class="st72" points="205.2,477.5 176.3,530.7 161.3,522.6 197.9,479.1 193.6,478.3 230,434 200.9,476.6 		"/>
		<g class="st66">
			<polygon class="st69" points="649,35.3 739.1,-47 762.3,-21.6 664,37 671.5,41.5 624.4,63.7 656.5,39.8 			"/>
			<polygon class="st68" points="486.4,17.2 507.4,-44.7 524.9,-38.8 493.9,14.1 498.6,14.3 482.2,36.9 491.1,17.3 			"/>
			<polygon class="st67" points="562.8,41.6 636.7,-55.6 664.1,-34.8 577.9,40.6 586.1,43.6 500.3,120.6 571.1,44.7 			"/>
			<polygon class="st67" points="419.5,26.2 430.3,-54.5 453,-51.5 427.9,20.7 433.7,19.7 409.3,92.7 425.3,25.3 			"/>
			<polygon class="st69" points="544.8,22.5 573.7,-30.7 588.7,-22.6 552.1,20.9 556.4,21.7 520,66 549.1,23.4 			"/>
			<polygon class="st67" points="690,227.5 807.6,194.8 816.8,227.9 702.6,235.8 707.3,243.2 655.2,241.8 694.7,234.9 			"/>
			<polygon class="st68" points="641,168.6 754.1,122.7 767,154.6 654.5,175.4 660,182.2 546.8,204.6 646.5,175.4 			"/>
			<polygon class="st69" points="704.1,100.2 769.3,58.7 781,77.1 713.3,103 717.5,106.6 649.6,133.4 708.3,103.9 			"/>
		</g>
	</g>
</g>
</svg>
